<?xml version="1.0" encoding="UTF-8"?>
<svg xmlns="http://www.w3.org/2000/svg" xmlns:xlink="http://www.w3.org/1999/xlink" width="16pt" height="16pt" viewBox="0 0 16 16" version="1.1">
<g id="surface1">
<rect x="0" y="0" width="16" height="16" style="fill:rgb(77.254902%,5.490196%,12.54902%);fill-opacity:1;stroke:none;"/>
<path style=" stroke:none;fill-rule:nonzero;fill:rgb(100%,100%,100%);fill-opacity:1;" d="M 8.042969 2.222656 L 6.335938 2.222656 L 6.335938 6.910156 L 4.660156 6.910156 L 4.660156 12.179688 L 2.109375 12.179688 L 2.109375 13.800781 L 8.042969 13.800781 Z M 8.042969 2.222656 "/>
<path style=" stroke:none;fill-rule:nonzero;fill:rgb(100%,100%,100%);fill-opacity:1;" d="M 9.316406 7.550781 L 14.027344 7.550781 C 14.042969 5.992188 13.273438 4.921875 11.601562 4.871094 C 10.007812 4.886719 9.308594 6.011719 9.316406 7.550781 Z M 9.316406 7.550781 "/>
<path style=" stroke:none;fill-rule:nonzero;fill:rgb(100%,100%,100%);fill-opacity:1;" d="M 12.945312 11.046875 C 12.40625 10.453125 11.3125 9.953125 10.71875 10.367188 C 9.730469 10.863281 10.027344 11.648438 10.503906 12.46875 C 11.027344 13.292969 12.121094 14.039062 13.039062 13.769531 C 14.222656 13.554688 13.8125 12.179688 12.945312 11.046875 Z M 12.945312 11.046875 "/>
</g>
</svg>
