<?xml version="1.0" encoding="UTF-8"?>
<svg xmlns="http://www.w3.org/2000/svg" xmlns:xlink="http://www.w3.org/1999/xlink" width="48pt" height="48pt" viewBox="0 0 48 48" version="1.1">
<g id="surface1">
<rect x="0" y="0" width="48" height="48" style="fill:rgb(77.254902%,5.490196%,12.54902%);fill-opacity:1;stroke:none;"/>
<path style=" stroke:none;fill-rule:nonzero;fill:rgb(100%,100%,100%);fill-opacity:1;" d="M 24.132812 6.667969 L 19.011719 6.667969 L 19.011719 20.734375 L 13.976562 20.734375 L 13.976562 36.539062 L 6.332031 36.539062 L 6.332031 41.402344 L 24.132812 41.402344 Z M 24.132812 6.667969 "/>
<path style=" stroke:none;fill-rule:nonzero;fill:rgb(100%,100%,100%);fill-opacity:1;" d="M 27.953125 22.65625 L 42.082031 22.65625 C 42.125 17.980469 39.824219 14.769531 34.800781 14.613281 C 30.019531 14.660156 27.929688 18.039062 27.953125 22.65625 Z M 27.953125 22.65625 "/>
<path style=" stroke:none;fill-rule:nonzero;fill:rgb(100%,100%,100%);fill-opacity:1;" d="M 38.835938 33.144531 C 37.21875 31.359375 33.933594 29.855469 32.15625 31.101562 C 29.191406 32.59375 30.082031 34.941406 31.507812 37.410156 C 33.078125 39.875 36.367188 42.117188 39.113281 41.304688 C 42.667969 40.660156 41.441406 36.539062 38.835938 33.144531 Z M 38.835938 33.144531 "/>
</g>
</svg>
