<?xml version="1.0" encoding="UTF-8"?>
<svg xmlns="http://www.w3.org/2000/svg" xmlns:xlink="http://www.w3.org/1999/xlink" width="96pt" height="96pt" viewBox="0 0 96 96" version="1.1">
<g id="surface1">
<rect x="0" y="0" width="96" height="96" style="fill:rgb(77.254902%,5.490196%,12.54902%);fill-opacity:1;stroke:none;"/>
<path style=" stroke:none;fill-rule:nonzero;fill:rgb(100%,100%,100%);fill-opacity:1;" d="M 48.269531 13.335938 L 38.019531 13.335938 L 38.019531 41.46875 L 27.949219 41.46875 L 27.949219 73.074219 L 12.667969 73.074219 L 12.667969 82.800781 L 48.269531 82.800781 Z M 48.269531 13.335938 "/>
<path style=" stroke:none;fill-rule:nonzero;fill:rgb(100%,100%,100%);fill-opacity:1;" d="M 55.90625 45.308594 L 84.160156 45.308594 C 84.246094 35.957031 79.648438 29.535156 69.601562 29.226562 C 60.039062 29.316406 55.859375 36.078125 55.90625 45.308594 Z M 55.90625 45.308594 "/>
<path style=" stroke:none;fill-rule:nonzero;fill:rgb(100%,100%,100%);fill-opacity:1;" d="M 77.675781 66.285156 C 74.433594 62.722656 67.863281 59.710938 64.316406 62.207031 C 58.382812 65.1875 60.167969 69.886719 63.019531 74.820312 C 66.160156 79.753906 72.730469 84.238281 78.230469 82.613281 C 85.339844 81.324219 82.878906 73.074219 77.675781 66.285156 Z M 77.675781 66.285156 "/>
</g>
</svg>
