<?xml version="1.0" encoding="UTF-8"?>
<svg xmlns="http://www.w3.org/2000/svg" xmlns:xlink="http://www.w3.org/1999/xlink" width="128pt" height="128pt" viewBox="0 0 128 128" version="1.1">
<g id="surface1">
<rect x="0" y="0" width="128" height="128" style="fill:rgb(77.254902%,5.490196%,12.54902%);fill-opacity:1;stroke:none;"/>
<path style=" stroke:none;fill-rule:nonzero;fill:rgb(100%,100%,100%);fill-opacity:1;" d="M 64.359375 17.78125 L 50.695312 17.78125 L 50.695312 55.292969 L 37.265625 55.292969 L 37.265625 97.433594 L 16.890625 97.433594 L 16.890625 110.402344 L 64.359375 110.402344 Z M 64.359375 17.78125 "/>
<path style=" stroke:none;fill-rule:nonzero;fill:rgb(100%,100%,100%);fill-opacity:1;" d="M 74.542969 60.414062 L 112.214844 60.414062 C 112.328125 47.945312 106.199219 39.382812 92.800781 38.96875 C 80.050781 39.089844 74.480469 48.105469 74.542969 60.414062 Z M 74.542969 60.414062 "/>
<path style=" stroke:none;fill-rule:nonzero;fill:rgb(100%,100%,100%);fill-opacity:1;" d="M 103.566406 88.382812 C 99.246094 83.628906 90.484375 79.613281 85.753906 82.941406 C 77.84375 86.917969 80.222656 93.179688 84.023438 99.761719 C 88.210938 106.339844 96.976562 112.316406 104.308594 110.148438 C 113.785156 108.429688 110.507812 97.433594 103.566406 88.382812 Z M 103.566406 88.382812 "/>
</g>
</svg>
